<svg xmlns="http://www.w3.org/2000/svg" xmlns:xlink="http://www.w3.org/1999/xlink" width="1176.8" height="492.5" viewBox="0 0 1176.8 492.5" class="lt-erd"><title>Schematex ERD</title>
<desc>Entity-Relationship Diagram with 6 entities and 6 relationships.</desc>
<style>.lt-erd { font-family: system-ui, -apple-system, sans-serif; }
.lt-erd-title { font: bold 16px sans-serif; fill: #0f172a; }
.lt-erd-entity-bg { fill: #ffffff; stroke: #334155; stroke-width: 1.5; }
.lt-erd-entity-header-bg { fill: #ffffff; stroke: #334155; stroke-width: 1.5; }
.lt-erd-entity-header { font: 600 13px sans-serif; fill: #0f172a; text-anchor: middle; dominant-baseline: middle; }
.lt-erd-attr-name { font: 500 12px sans-serif; fill: #0f172a; dominant-baseline: middle; }
.lt-erd-attr-name-pk { font: 600 12px sans-serif; fill: #0f172a; text-decoration: underline; dominant-baseline: middle; }
.lt-erd-attr-type { font: 11px monospace; fill: #475569; dominant-baseline: middle; }
.lt-erd-attr-marker { font: 700 10px sans-serif; fill: #ffffff; text-anchor: middle; dominant-baseline: middle; letter-spacing: 0.3px; }
.lt-erd-attr-marker-bg-pk { fill: #2563eb; stroke: none; }
.lt-erd-attr-marker-bg-fk { fill: #d97706; stroke: none; }
.lt-erd-attr-marker-bg-uk { fill: #059669; stroke: none; }
.lt-erd-attr-marker-bg-nn { fill: #94a3b8; stroke: none; }
.lt-erd-row-divider { stroke: #f1f5f9; stroke-width: 1; }
.lt-erd-edge { fill: none; stroke: #334155; stroke-width: 1.5; }
.lt-erd-edge-non-identifying { stroke-dasharray: 5,4; }
.lt-erd-glyph { stroke: #334155; stroke-width: 1.5; fill: none; }
.lt-erd-glyph-circle { stroke: #334155; stroke-width: 1.5; fill: #ffffff; }
.lt-erd-edge-label { font: 500 10px sans-serif; fill: #475569; text-anchor: middle; dominant-baseline: middle; }</style>

<g class="lt-erd-edges" transform="translate(0, 0)"><g class="lt-erd-edge-group"><path d="M 212 131 L 240 131 L 240 54 L 606 54 L 606 153 L 634 153" class="lt-erd-edge"/>
<line x1="230" y1="137" x2="230" y2="125" class="lt-erd-glyph"/>
<circle cx="616" cy="153" r="4" class="lt-erd-glyph-circle"/><line x1="624" y1="153" x2="634" y2="153" class="lt-erd-glyph"/><line x1="624" y1="153" x2="634" y2="147" class="lt-erd-glyph"/><line x1="624" y1="153" x2="634" y2="159" class="lt-erd-glyph"/>
<text x="423" y="40" class="lt-erd-edge-label">places</text></g>
<g class="lt-erd-edge-group"><path d="M 212 153 L 305 153 L 305 142 L 333 142" class="lt-erd-edge"/>
<line x1="230" y1="159" x2="230" y2="147" class="lt-erd-glyph"/>
<circle cx="315" cy="142" r="4" class="lt-erd-glyph-circle"/><line x1="323" y1="142" x2="333" y2="142" class="lt-erd-glyph"/><line x1="323" y1="142" x2="333" y2="136" class="lt-erd-glyph"/><line x1="323" y1="142" x2="333" y2="148" class="lt-erd-glyph"/>
<text x="281.75" y="139" class="lt-erd-edge-label">saves</text></g>
<g class="lt-erd-edge-group"><path d="M 843.8 153 L 936.8 153 L 936.8 224.5 L 964.8 224.5" class="lt-erd-edge"/>
<line x1="861.8" y1="159" x2="861.8" y2="147" class="lt-erd-glyph"/>
<line x1="946.8" y1="218.5" x2="946.8" y2="230.5" class="lt-erd-glyph"/><line x1="954.8" y1="224.5" x2="964.8" y2="224.5" class="lt-erd-glyph"/><line x1="954.8" y1="224.5" x2="964.8" y2="218.5" class="lt-erd-glyph"/><line x1="954.8" y1="224.5" x2="964.8" y2="230.5" class="lt-erd-glyph"/>
<text x="913.55" y="139" class="lt-erd-edge-label">contains</text></g>
<g class="lt-erd-edge-group"><path d="M 212 296 L 936.8 296 L 936.8 246.5 L 964.8 246.5" class="lt-erd-edge"/>
<line x1="230" y1="302" x2="230" y2="290" class="lt-erd-glyph"/>
<circle cx="946.8" cy="246.5" r="4" class="lt-erd-glyph-circle"/><line x1="954.8" y1="246.5" x2="964.8" y2="246.5" class="lt-erd-glyph"/><line x1="954.8" y1="246.5" x2="964.8" y2="240.5" class="lt-erd-glyph"/><line x1="954.8" y1="246.5" x2="964.8" y2="252.5" class="lt-erd-glyph"/>
<text x="574.4" y="282" class="lt-erd-edge-label">appears_in</text></g>
<g class="lt-erd-edge-group"><path d="M 843.8 175 L 871.8 175 L 871.8 400.5 L 964.8 400.5" class="lt-erd-edge"/>
<line x1="861.8" y1="181" x2="861.8" y2="169" class="lt-erd-glyph"/>
<circle cx="946.8" cy="400.5" r="4" class="lt-erd-glyph-circle"/><line x1="954.8" y1="400.5" x2="964.8" y2="400.5" class="lt-erd-glyph"/><line x1="954.8" y1="400.5" x2="964.8" y2="394.5" class="lt-erd-glyph"/><line x1="954.8" y1="400.5" x2="964.8" y2="406.5" class="lt-erd-glyph"/>
<text x="918.3" y="386.5" class="lt-erd-edge-label">has</text></g>
<g class="lt-erd-edge-group"><path d="M 513 142 L 541 142 L 541 131 L 634 131" class="lt-erd-edge"/>
<line x1="531" y1="148" x2="531" y2="136" class="lt-erd-glyph"/>
<circle cx="616" cy="131" r="4" class="lt-erd-glyph-circle"/><line x1="624" y1="131" x2="634" y2="131" class="lt-erd-glyph"/><line x1="624" y1="131" x2="634" y2="125" class="lt-erd-glyph"/><line x1="624" y1="131" x2="634" y2="137" class="lt-erd-glyph"/>
<text x="564.25" y="117" class="lt-erd-edge-label">ships_to</text></g></g>
<g class="lt-erd-entities" transform="translate(0, 0)"><g class="lt-erd-entity" data-id="CUSTOMER"><rect x="32" y="82" width="180" height="98" rx="4" class="lt-erd-entity-bg"/>
<path d="M 32 86 Q 32 82 36 82 L 208 82 Q 212 82 212 86 L 212 110 L 32 110 Z" class="lt-erd-entity-header-bg"/>
<text x="122" y="96" class="lt-erd-entity-header">CUSTOMER</text>
<text x="46" y="121" class="lt-erd-attr-name-pk">customer_id</text>
<text x="164" y="121" class="lt-erd-attr-type" text-anchor="end">int</text>
<rect x="172" y="113" width="26" height="16" rx="3" class="lt-erd-attr-marker-bg-pk"/>
<text x="185" y="122" class="lt-erd-attr-marker">PK</text>
<line x1="32" y1="132" x2="212" y2="132" class="lt-erd-row-divider"/>
<text x="46" y="143" class="lt-erd-attr-name">email</text>
<text x="194" y="143" class="lt-erd-attr-type" text-anchor="end">string</text>
<line x1="32" y1="154" x2="212" y2="154" class="lt-erd-row-divider"/>
<text x="46" y="165" class="lt-erd-attr-name">full_name</text>
<text x="194" y="165" class="lt-erd-attr-type" text-anchor="end">string</text></g>
<g class="lt-erd-entity" data-id="PRODUCT"><rect x="32" y="236" width="180" height="120" rx="4" class="lt-erd-entity-bg"/>
<path d="M 32 240 Q 32 236 36 236 L 208 236 Q 212 236 212 240 L 212 264 L 32 264 Z" class="lt-erd-entity-header-bg"/>
<text x="122" y="250" class="lt-erd-entity-header">PRODUCT</text>
<text x="46" y="275" class="lt-erd-attr-name-pk">product_id</text>
<text x="164" y="275" class="lt-erd-attr-type" text-anchor="end">int</text>
<rect x="172" y="267" width="26" height="16" rx="3" class="lt-erd-attr-marker-bg-pk"/>
<text x="185" y="276" class="lt-erd-attr-marker">PK</text>
<line x1="32" y1="286" x2="212" y2="286" class="lt-erd-row-divider"/>
<text x="46" y="297" class="lt-erd-attr-name">sku</text>
<text x="194" y="297" class="lt-erd-attr-type" text-anchor="end">string</text>
<line x1="32" y1="308" x2="212" y2="308" class="lt-erd-row-divider"/>
<text x="46" y="319" class="lt-erd-attr-name">name</text>
<text x="194" y="319" class="lt-erd-attr-type" text-anchor="end">string</text>
<line x1="32" y1="330" x2="212" y2="330" class="lt-erd-row-divider"/>
<text x="46" y="341" class="lt-erd-attr-name">unit_price</text>
<text x="194" y="341" class="lt-erd-attr-type" text-anchor="end">decimal</text></g>
<g class="lt-erd-entity" data-id="ADDRESS"><rect x="333" y="82" width="180" height="120" rx="4" class="lt-erd-entity-bg"/>
<path d="M 333 86 Q 333 82 337 82 L 509 82 Q 513 82 513 86 L 513 110 L 333 110 Z" class="lt-erd-entity-header-bg"/>
<text x="423" y="96" class="lt-erd-entity-header">ADDRESS</text>
<text x="347" y="121" class="lt-erd-attr-name-pk">address_id</text>
<text x="465" y="121" class="lt-erd-attr-type" text-anchor="end">int</text>
<rect x="473" y="113" width="26" height="16" rx="3" class="lt-erd-attr-marker-bg-pk"/>
<text x="486" y="122" class="lt-erd-attr-marker">PK</text>
<line x1="333" y1="132" x2="513" y2="132" class="lt-erd-row-divider"/>
<text x="347" y="143" class="lt-erd-attr-name">customer_id</text>
<text x="465" y="143" class="lt-erd-attr-type" text-anchor="end">int</text>
<rect x="473" y="135" width="26" height="16" rx="3" class="lt-erd-attr-marker-bg-fk"/>
<text x="486" y="144" class="lt-erd-attr-marker">FK</text>
<line x1="333" y1="154" x2="513" y2="154" class="lt-erd-row-divider"/>
<text x="347" y="165" class="lt-erd-attr-name">postal_code</text>
<text x="495" y="165" class="lt-erd-attr-type" text-anchor="end">string</text>
<line x1="333" y1="176" x2="513" y2="176" class="lt-erd-row-divider"/>
<text x="347" y="187" class="lt-erd-attr-name">country</text>
<text x="495" y="187" class="lt-erd-attr-type" text-anchor="end">string</text></g>
<g class="lt-erd-entity" data-id="ORDER"><rect x="634" y="82" width="209.8" height="142" rx="4" class="lt-erd-entity-bg"/>
<path d="M 634 86 Q 634 82 638 82 L 839.8 82 Q 843.8 82 843.8 86 L 843.8 110 L 634 110 Z" class="lt-erd-entity-header-bg"/>
<text x="738.9" y="96" class="lt-erd-entity-header">ORDER</text>
<text x="648" y="121" class="lt-erd-attr-name-pk">order_id</text>
<text x="795.8" y="121" class="lt-erd-attr-type" text-anchor="end">int</text>
<rect x="803.8" y="113" width="26" height="16" rx="3" class="lt-erd-attr-marker-bg-pk"/>
<text x="816.8" y="122" class="lt-erd-attr-marker">PK</text>
<line x1="634" y1="132" x2="843.8" y2="132" class="lt-erd-row-divider"/>
<text x="648" y="143" class="lt-erd-attr-name">customer_id</text>
<text x="795.8" y="143" class="lt-erd-attr-type" text-anchor="end">int</text>
<rect x="803.8" y="135" width="26" height="16" rx="3" class="lt-erd-attr-marker-bg-fk"/>
<text x="816.8" y="144" class="lt-erd-attr-marker">FK</text>
<line x1="634" y1="154" x2="843.8" y2="154" class="lt-erd-row-divider"/>
<text x="648" y="165" class="lt-erd-attr-name">shipping_address_id</text>
<text x="795.8" y="165" class="lt-erd-attr-type" text-anchor="end">int</text>
<rect x="803.8" y="157" width="26" height="16" rx="3" class="lt-erd-attr-marker-bg-fk"/>
<text x="816.8" y="166" class="lt-erd-attr-marker">FK</text>
<line x1="634" y1="176" x2="843.8" y2="176" class="lt-erd-row-divider"/>
<text x="648" y="187" class="lt-erd-attr-name">ordered_at</text>
<text x="825.8" y="187" class="lt-erd-attr-type" text-anchor="end">date</text>
<line x1="634" y1="198" x2="843.8" y2="198" class="lt-erd-row-divider"/>
<text x="648" y="209" class="lt-erd-attr-name">status</text>
<text x="825.8" y="209" class="lt-erd-attr-type" text-anchor="end">string</text></g>
<g class="lt-erd-entity" data-id="LINE_ITEM"><rect x="964.8" y="164.5" width="180" height="120" rx="4" class="lt-erd-entity-bg"/>
<path d="M 964.8 168.5 Q 964.8 164.5 968.8 164.5 L 1140.8 164.5 Q 1144.8 164.5 1144.8 168.5 L 1144.8 192.5 L 964.8 192.5 Z" class="lt-erd-entity-header-bg"/>
<text x="1054.8" y="178.5" class="lt-erd-entity-header">LINE_ITEM</text>
<text x="978.8" y="203.5" class="lt-erd-attr-name-pk">line_item_id</text>
<text x="1096.8" y="203.5" class="lt-erd-attr-type" text-anchor="end">int</text>
<rect x="1104.8" y="195.5" width="26" height="16" rx="3" class="lt-erd-attr-marker-bg-pk"/>
<text x="1117.8" y="204.5" class="lt-erd-attr-marker">PK</text>
<line x1="964.8" y1="214.5" x2="1144.8" y2="214.5" class="lt-erd-row-divider"/>
<text x="978.8" y="225.5" class="lt-erd-attr-name">order_id</text>
<text x="1096.8" y="225.5" class="lt-erd-attr-type" text-anchor="end">int</text>
<rect x="1104.8" y="217.5" width="26" height="16" rx="3" class="lt-erd-attr-marker-bg-fk"/>
<text x="1117.8" y="226.5" class="lt-erd-attr-marker">FK</text>
<line x1="964.8" y1="236.5" x2="1144.8" y2="236.5" class="lt-erd-row-divider"/>
<text x="978.8" y="247.5" class="lt-erd-attr-name">product_id</text>
<text x="1096.8" y="247.5" class="lt-erd-attr-type" text-anchor="end">int</text>
<rect x="1104.8" y="239.5" width="26" height="16" rx="3" class="lt-erd-attr-marker-bg-fk"/>
<text x="1117.8" y="248.5" class="lt-erd-attr-marker">FK</text>
<line x1="964.8" y1="258.5" x2="1144.8" y2="258.5" class="lt-erd-row-divider"/>
<text x="978.8" y="269.5" class="lt-erd-attr-name">quantity</text>
<text x="1126.8" y="269.5" class="lt-erd-attr-type" text-anchor="end">int</text></g>
<g class="lt-erd-entity" data-id="PAYMENT"><rect x="964.8" y="340.5" width="180" height="120" rx="4" class="lt-erd-entity-bg"/>
<path d="M 964.8 344.5 Q 964.8 340.5 968.8 340.5 L 1140.8 340.5 Q 1144.8 340.5 1144.8 344.5 L 1144.8 368.5 L 964.8 368.5 Z" class="lt-erd-entity-header-bg"/>
<text x="1054.8" y="354.5" class="lt-erd-entity-header">PAYMENT</text>
<text x="978.8" y="379.5" class="lt-erd-attr-name-pk">payment_id</text>
<text x="1096.8" y="379.5" class="lt-erd-attr-type" text-anchor="end">int</text>
<rect x="1104.8" y="371.5" width="26" height="16" rx="3" class="lt-erd-attr-marker-bg-pk"/>
<text x="1117.8" y="380.5" class="lt-erd-attr-marker">PK</text>
<line x1="964.8" y1="390.5" x2="1144.8" y2="390.5" class="lt-erd-row-divider"/>
<text x="978.8" y="401.5" class="lt-erd-attr-name">order_id</text>
<text x="1096.8" y="401.5" class="lt-erd-attr-type" text-anchor="end">int</text>
<rect x="1104.8" y="393.5" width="26" height="16" rx="3" class="lt-erd-attr-marker-bg-fk"/>
<text x="1117.8" y="402.5" class="lt-erd-attr-marker">FK</text>
<line x1="964.8" y1="412.5" x2="1144.8" y2="412.5" class="lt-erd-row-divider"/>
<text x="978.8" y="423.5" class="lt-erd-attr-name">amount</text>
<text x="1126.8" y="423.5" class="lt-erd-attr-type" text-anchor="end">decimal</text>
<line x1="964.8" y1="434.5" x2="1144.8" y2="434.5" class="lt-erd-row-divider"/>
<text x="978.8" y="445.5" class="lt-erd-attr-name">status</text>
<text x="1126.8" y="445.5" class="lt-erd-attr-type" text-anchor="end">string</text></g></g></svg>