<svg xmlns="http://www.w3.org/2000/svg" xmlns:xlink="http://www.w3.org/1999/xlink" viewBox="0 0 1260 422" width="1260" height="422" class="sx-fb" role="img"><title>Website Traffic Drop — Root Cause Analysis — Fishbone diagram</title>
<desc>Ishikawa cause-and-effect diagram. Effect: Traffic Drop. 6 categories.</desc>
<style>.sx-fb { background: var(--schematex-fb-bg, #ffffff); font-family: system-ui, -apple-system, "Segoe UI", sans-serif; }
.sx-fb-title { font: 600 16px sans-serif; fill: #111; }
.sx-fb-spine { stroke: var(--schematex-fb-spine, #141413); stroke-width: 2; stroke-linecap: butt; fill: none; }
.sx-fb-tail { stroke: var(--schematex-fb-spine, #141413); stroke-width: 2; stroke-linecap: round; fill: none; }
.sx-fb-head { stroke-width: 0.5; }
.sx-fb-head-text { font: 500 14px sans-serif; text-anchor: middle; dominant-baseline: central; }
.sx-fb-rib { stroke-width: 1.5; fill: none; }
.sx-fb-header-pill { stroke-width: 0.6; }
.sx-fb-header-text { font: 500 14px sans-serif; text-anchor: middle; dominant-baseline: central; }
.sx-fb-branch { stroke-width: 0.8; opacity: 0.6; fill: none; }
.sx-fb-cause-label { font: 400 12px sans-serif; fill: #3d3d3a; dominant-baseline: central; }
.sx-fb-sub-tick { stroke-width: 0.7; opacity: 0.5; fill: none; }
.sx-fb-sub-label { font: 400 11px sans-serif; fill: #555; dominant-baseline: central; }</style>
<defs><mask id="sx-fb-mask-v5a5jw" maskUnits="userSpaceOnUse"><rect x="0" y="0" width="1260" height="422" fill="white"/>
<rect x="134.6" y="67" width="132" height="34" fill="black" rx="2"/>
<rect x="306" y="195" width="151.84" height="16" fill="black" rx="2"/>
<rect x="288" y="165" width="84.64" height="16" fill="black" rx="2"/>
<rect x="270" y="135" width="84.64" height="16" fill="black" rx="2"/>
<rect x="252" y="105" width="151.84" height="16" fill="black" rx="2"/>
<rect x="390.6" y="67" width="132" height="34" fill="black" rx="2"/>
<rect x="562" y="195" width="145.12" height="16" fill="black" rx="2"/>
<rect x="544" y="165" width="151.84" height="16" fill="black" rx="2"/>
<rect x="526" y="135" width="165.28" height="16" fill="black" rx="2"/>
<rect x="508" y="105" width="172" height="16" fill="black" rx="2"/>
<rect x="646.6" y="67" width="132" height="34" fill="black" rx="2"/>
<rect x="818" y="195" width="84.64" height="16" fill="black" rx="2"/>
<rect x="800" y="165" width="205.6" height="16" fill="black" rx="2"/>
<rect x="782" y="135" width="91.36" height="16" fill="black" rx="2"/>
<rect x="764" y="105" width="172" height="16" fill="black" rx="2"/>
<rect x="134.6" y="365" width="132" height="34" fill="black" rx="2"/>
<rect x="306" y="255" width="138.4" height="16" fill="black" rx="2"/>
<rect x="288" y="285" width="131.68" height="16" fill="black" rx="2"/>
<rect x="270" y="315" width="145.12" height="16" fill="black" rx="2"/>
<rect x="252" y="345" width="158.56" height="16" fill="black" rx="2"/>
<rect x="390.6" y="365" width="132" height="34" fill="black" rx="2"/>
<rect x="562" y="255" width="118.24" height="16" fill="black" rx="2"/>
<rect x="544" y="285" width="151.84" height="16" fill="black" rx="2"/>
<rect x="526" y="315" width="57.76" height="16" fill="black" rx="2"/>
<rect x="508" y="345" width="158.56" height="16" fill="black" rx="2"/>
<rect x="646.6" y="365" width="132" height="34" fill="black" rx="2"/>
<rect x="818" y="255" width="131.68" height="16" fill="black" rx="2"/>
<rect x="800" y="285" width="138.4" height="16" fill="black" rx="2"/>
<rect x="782" y="315" width="145.12" height="16" fill="black" rx="2"/>
<rect x="764" y="345" width="84.64" height="16" fill="black" rx="2"/>
<rect x="1055.6" y="197" width="160" height="72" fill="black" rx="2"/></mask></defs>
<text x="630" y="28" class="sx-fb-title" text-anchor="middle">Website Traffic Drop — Root Cause Analysis</text>
<line x1="120" y1="233" x2="40" y2="193" class="sx-fb-tail"/>
<line x1="120" y1="233" x2="40" y2="273" class="sx-fb-tail"/>
<line x1="120" y1="233" x2="1051.6" y2="233" class="sx-fb-spine"/>
<g class="sx-fb-head-g"><polygon points="1051.6,193 1051.6,273 1219.6,233" class="sx-fb-head" fill="#faece7" stroke="#993c1d"/>
<text x="1115.4399999999998" y="233" class="sx-fb-head-text" fill="#6b2a14">Traffic Drop</text></g>
<g class="sx-fb-ribs"><line x1="290" y1="233" x2="218" y2="113" class="sx-fb-rib" stroke="#2563eb" mask="url(#sx-fb-mask-v5a5jw)"/>
<line x1="218" y1="113" x2="200.6" y2="84" class="sx-fb-rib" stroke="#2563eb"/>
<rect x="134.6" y="67" width="132" height="34" rx="8" class="sx-fb-header-pill" fill="#d8e3fb" stroke="#2563eb"/>
<text x="200.6" y="84" class="sx-fb-header-text" fill="#1a45a5">Content</text>
<line x1="272" y1="203" x2="302" y2="203" class="sx-fb-branch" stroke="#2563eb" mask="url(#sx-fb-mask-v5a5jw)"/>
<text x="308" y="203" class="sx-fb-cause-label" text-anchor="start">Lower update frequency</text>
<line x1="254" y1="173" x2="284" y2="173" class="sx-fb-branch" stroke="#2563eb" mask="url(#sx-fb-mask-v5a5jw)"/>
<text x="290" y="173" class="sx-fb-cause-label" text-anchor="start">Thin content</text>
<line x1="236" y1="143" x2="266" y2="143" class="sx-fb-branch" stroke="#2563eb" mask="url(#sx-fb-mask-v5a5jw)"/>
<text x="272" y="143" class="sx-fb-cause-label" text-anchor="start">Keyword gaps</text>
<line x1="218" y1="113" x2="248" y2="113" class="sx-fb-branch" stroke="#2563eb" mask="url(#sx-fb-mask-v5a5jw)"/>
<text x="254" y="113" class="sx-fb-cause-label" text-anchor="start">Low-quality AI content</text>
<line x1="546" y1="233" x2="474" y2="113" class="sx-fb-rib" stroke="#059669" mask="url(#sx-fb-mask-v5a5jw)"/>
<line x1="474" y1="113" x2="456.6" y2="84" class="sx-fb-rib" stroke="#059669"/>
<rect x="390.6" y="67" width="132" height="34" rx="8" class="sx-fb-header-pill" fill="#d2ece4" stroke="#059669"/>
<text x="456.6" y="84" class="sx-fb-header-text" fill="#04694a">Backlinks</text>
<line x1="528" y1="203" x2="558" y2="203" class="sx-fb-branch" stroke="#059669" mask="url(#sx-fb-mask-v5a5jw)"/>
<text x="564" y="203" class="sx-fb-cause-label" text-anchor="start">High-DA backlink loss</text>
<line x1="510" y1="173" x2="540" y2="173" class="sx-fb-branch" stroke="#059669" mask="url(#sx-fb-mask-v5a5jw)"/>
<text x="546" y="173" class="sx-fb-cause-label" text-anchor="start">Low-quality link ratio</text>
<line x1="492" y1="143" x2="522" y2="143" class="sx-fb-branch" stroke="#059669" mask="url(#sx-fb-mask-v5a5jw)"/>
<text x="528" y="143" class="sx-fb-cause-label" text-anchor="start">Referring domain plateau</text>
<line x1="474" y1="113" x2="504" y2="113" class="sx-fb-branch" stroke="#059669" mask="url(#sx-fb-mask-v5a5jw)"/>
<text x="510" y="113" class="sx-fb-cause-label" text-anchor="start">Anchor text diversity low</text>
<line x1="802" y1="233" x2="730" y2="113" class="sx-fb-rib" stroke="#d97706" mask="url(#sx-fb-mask-v5a5jw)"/>
<line x1="730" y1="113" x2="712.6" y2="84" class="sx-fb-rib" stroke="#d97706"/>
<rect x="646.6" y="67" width="132" height="34" rx="8" class="sx-fb-header-pill" fill="#f8e7d2" stroke="#d97706"/>
<text x="712.6" y="84" class="sx-fb-header-text" fill="#985304">Competition</text>
<line x1="784" y1="203" x2="814" y2="203" class="sx-fb-branch" stroke="#d97706" mask="url(#sx-fb-mask-v5a5jw)"/>
<text x="820" y="203" class="sx-fb-cause-label" text-anchor="start">New entrants</text>
<line x1="766" y1="173" x2="796" y2="173" class="sx-fb-branch" stroke="#d97706" mask="url(#sx-fb-mask-v5a5jw)"/>
<text x="802" y="173" class="sx-fb-cause-label" text-anchor="start">AI overviews displacing clicks</text>
<line x1="748" y1="143" x2="778" y2="143" class="sx-fb-branch" stroke="#d97706" mask="url(#sx-fb-mask-v5a5jw)"/>
<text x="784" y="143" class="sx-fb-cause-label" text-anchor="start">Brand erosion</text>
<line x1="730" y1="113" x2="760" y2="113" class="sx-fb-branch" stroke="#d97706" mask="url(#sx-fb-mask-v5a5jw)"/>
<text x="766" y="113" class="sx-fb-cause-label" text-anchor="start">Competitor cadence faster</text>
<line x1="290" y1="233" x2="218" y2="353" class="sx-fb-rib" stroke="#7c3aed" mask="url(#sx-fb-mask-v5a5jw)"/>
<line x1="218" y1="353" x2="200.6" y2="382" class="sx-fb-rib" stroke="#7c3aed"/>
<rect x="134.6" y="365" width="132" height="34" rx="8" class="sx-fb-header-pill" fill="#e7dcfc" stroke="#7c3aed"/>
<text x="200.6" y="382" class="sx-fb-header-text" fill="#5729a6">Technical</text>
<line x1="272" y1="263" x2="302" y2="263" class="sx-fb-branch" stroke="#7c3aed" mask="url(#sx-fb-mask-v5a5jw)"/>
<text x="308" y="263" class="sx-fb-cause-label" text-anchor="start">Poor Core Web Vitals</text>
<line x1="254" y1="293" x2="284" y2="293" class="sx-fb-branch" stroke="#7c3aed" mask="url(#sx-fb-mask-v5a5jw)"/>
<text x="290" y="293" class="sx-fb-cause-label" text-anchor="start">Crawl coverage drop</text>
<line x1="236" y1="323" x2="266" y2="323" class="sx-fb-branch" stroke="#7c3aed" mask="url(#sx-fb-mask-v5a5jw)"/>
<text x="272" y="323" class="sx-fb-cause-label" text-anchor="start">WAF blocking crawlers</text>
<line x1="218" y1="353" x2="248" y2="353" class="sx-fb-branch" stroke="#7c3aed" mask="url(#sx-fb-mask-v5a5jw)"/>
<text x="254" y="353" class="sx-fb-cause-label" text-anchor="start">Missing structured data</text>
<line x1="546" y1="233" x2="474" y2="353" class="sx-fb-rib" stroke="#dc2626" mask="url(#sx-fb-mask-v5a5jw)"/>
<line x1="474" y1="353" x2="456.6" y2="382" class="sx-fb-rib" stroke="#dc2626"/>
<rect x="390.6" y="365" width="132" height="34" rx="8" class="sx-fb-header-pill" fill="#f9d8d8" stroke="#dc2626"/>
<text x="456.6" y="382" class="sx-fb-header-text" fill="#9a1b1b">UX</text>
<line x1="528" y1="263" x2="558" y2="263" class="sx-fb-branch" stroke="#dc2626" mask="url(#sx-fb-mask-v5a5jw)"/>
<text x="564" y="263" class="sx-fb-cause-label" text-anchor="start">Bounce rate spike</text>
<line x1="510" y1="293" x2="540" y2="293" class="sx-fb-branch" stroke="#dc2626" mask="url(#sx-fb-mask-v5a5jw)"/>
<text x="546" y="293" class="sx-fb-cause-label" text-anchor="start">Poor mobile experience</text>
<line x1="492" y1="323" x2="522" y2="323" class="sx-fb-branch" stroke="#dc2626" mask="url(#sx-fb-mask-v5a5jw)"/>
<text x="528" y="323" class="sx-fb-cause-label" text-anchor="start">Slow LCP</text>
<line x1="474" y1="353" x2="504" y2="353" class="sx-fb-branch" stroke="#dc2626" mask="url(#sx-fb-mask-v5a5jw)"/>
<text x="510" y="353" class="sx-fb-cause-label" text-anchor="start">Intrusive interstitials</text>
<line x1="802" y1="233" x2="730" y2="353" class="sx-fb-rib" stroke="#0891b2" mask="url(#sx-fb-mask-v5a5jw)"/>
<line x1="730" y1="353" x2="712.6" y2="382" class="sx-fb-rib" stroke="#0891b2"/>
<rect x="646.6" y="365" width="132" height="34" rx="8" class="sx-fb-header-pill" fill="#d3ebf1" stroke="#0891b2"/>
<text x="712.6" y="382" class="sx-fb-header-text" fill="#06667d">Algorithm</text>
<line x1="784" y1="263" x2="814" y2="263" class="sx-fb-branch" stroke="#0891b2" mask="url(#sx-fb-mask-v5a5jw)"/>
<text x="820" y="263" class="sx-fb-cause-label" text-anchor="start">Core Update penalty</text>
<line x1="766" y1="293" x2="796" y2="293" class="sx-fb-branch" stroke="#0891b2" mask="url(#sx-fb-mask-v5a5jw)"/>
<text x="802" y="293" class="sx-fb-cause-label" text-anchor="start">Weak E-E-A-T signals</text>
<line x1="748" y1="323" x2="778" y2="323" class="sx-fb-branch" stroke="#0891b2" mask="url(#sx-fb-mask-v5a5jw)"/>
<text x="784" y="323" class="sx-fb-cause-label" text-anchor="start">SGE traffic diversion</text>
<line x1="730" y1="353" x2="760" y2="353" class="sx-fb-branch" stroke="#0891b2" mask="url(#sx-fb-mask-v5a5jw)"/>
<text x="766" y="353" class="sx-fb-cause-label" text-anchor="start">Intent drift</text></g></svg>