<svg xmlns="http://www.w3.org/2000/svg" width="70" height="112" viewBox="0 0 70 112" role="img" font-family="Inter, Helvetica Neue, Helvetica, Arial, sans-serif">
<title>LED, 5 mm red</title>
<desc>Top view of a 5 mm red LED straddling the breadboard trough: anode leg in hole 26f, cathode leg in hole 26e, the flange cut flat on the cathode side.</desc>
<g transform="translate(-723 -675)">
<rect x="731" y="720" width="54" height="22" rx="3" fill="#E6E0D2" opacity="0.45"/><rect x="737.8" y="683.8" width="4.4" height="4.4" rx="0.9" fill="#8A8475" opacity="0.45"/><rect x="755.8" y="683.8" width="4.4" height="4.4" rx="0.9" fill="#8A8475" opacity="0.45"/><rect x="773.8" y="683.8" width="4.4" height="4.4" rx="0.9" fill="#8A8475" opacity="0.45"/><rect x="737.8" y="701.8" width="4.4" height="4.4" rx="0.9" fill="#8A8475" opacity="0.45"/><rect x="755.8" y="701.8" width="4.4" height="4.4" rx="0.9" fill="#8A8475" opacity="0.45"/><rect x="773.8" y="701.8" width="4.4" height="4.4" rx="0.9" fill="#8A8475" opacity="0.45"/><rect x="737.8" y="755.8" width="4.4" height="4.4" rx="0.9" fill="#8A8475" opacity="0.45"/><rect x="755.8" y="755.8" width="4.4" height="4.4" rx="0.9" fill="#8A8475" opacity="0.45"/><rect x="773.8" y="755.8" width="4.4" height="4.4" rx="0.9" fill="#8A8475" opacity="0.45"/><rect x="737.8" y="773.8" width="4.4" height="4.4" rx="0.9" fill="#8A8475" opacity="0.45"/><rect x="755.8" y="773.8" width="4.4" height="4.4" rx="0.9" fill="#8A8475" opacity="0.45"/><rect x="773.8" y="773.8" width="4.4" height="4.4" rx="0.9" fill="#8A8475" opacity="0.45"/>
<line x1="758" y1="758" x2="758" y2="731" stroke="#8E8E8E" stroke-width="2" stroke-linecap="round"/><line x1="758" y1="704" x2="758" y2="731" stroke="#8E8E8E" stroke-width="2" stroke-linecap="round"/><path d="M 748.88 712.58 L 767.12 712.58 A 20.55 20.55 0 1 1 748.88 712.58 Z" fill="#B8261F"/><circle cx="758" cy="731" r="17.72" fill="#E23B30"/><ellipse cx="751.8" cy="724.8" rx="6" ry="3.6" fill="#FFFFFF" opacity="0.55" transform="rotate(-35 751.8 724.8)"/><circle data-pin="anode" cx="758" cy="758" r="2.4" fill="#5C5C5C"/><circle data-pin="cathode" cx="758" cy="704" r="2.4" fill="#5C5C5C"/>
</g>
</svg>
