<svg xmlns="http://www.w3.org/2000/svg" xmlns:xlink="http://www.w3.org/1999/xlink" class="schematex-circuit" viewBox="0 0 600 384" width="600" height="384" role="img" data-diagram-type="circuit"><title>CE Amp (netlist)</title>
<desc>Circuit schematic with 6 components</desc>
<defs><style>.schematex-circuit { background: #fff; font-family: system-ui, -apple-system, sans-serif; }
.schematex-circuit-body { stroke: #222; stroke-width: 1.75; fill: none; stroke-linejoin: round; stroke-linecap: round; }
.schematex-circuit-fill { stroke: #222; stroke-width: 1.5; fill: #222; }
.schematex-circuit-wire { stroke: #222; stroke-width: 1.75; fill: none; stroke-linecap: square; }
.schematex-circuit-dot { fill: #222; stroke: none; }
.schematex-circuit-label { font: 600 11px system-ui, sans-serif; fill: #111; }
.schematex-circuit-value { font: italic 10px system-ui, sans-serif; fill: #555; }
.schematex-circuit-net-label { font: 600 11px system-ui, sans-serif; fill: #06c; }
.schematex-circuit-pol { font: 9px sans-serif; fill: #222; }
.schematex-circuit-meter { font: bold 12px sans-serif; fill: #222; }
.schematex-circuit-title { font: bold 14px sans-serif; fill: #111; }</style></defs>
<text x="300" y="18" text-anchor="middle" class="schematex-circuit-title">CE Amp (netlist)</text>
<g transform="translate(0, 24)"><polyline points="40,40 280,40" class="schematex-circuit-wire" fill="none"></polyline><polyline points="40,70 40,40" class="schematex-circuit-wire" fill="none"></polyline><polyline points="160,110 160,40" class="schematex-circuit-wire" fill="none"></polyline><polyline points="280,110 280,40" class="schematex-circuit-wire" fill="none"></polyline><polyline points="40,320 560,320" class="schematex-circuit-wire" fill="none"></polyline><polyline points="40,110 40,320" class="schematex-circuit-wire" fill="none"></polyline><polyline points="560,110 560,320" class="schematex-circuit-wire" fill="none"></polyline><polyline points="280,270 280,320" class="schematex-circuit-wire" fill="none"></polyline><polyline points="200,110 200,94 440,94" class="schematex-circuit-wire" fill="none"></polyline><polyline points="320,110 400,110" class="schematex-circuit-wire" fill="none"></polyline><polyline points="440,126 440,110 520,110" class="schematex-circuit-wire" fill="none"></polyline><g transform="translate(40, 110) rotate(270)" data-id="V1" data-type="voltage_source"><line x1="0" y1="0" x2="8" y2="0" class="schematex-circuit-wire"></line><circle cx="20" cy="0" r="12" fill="white" class="schematex-circuit-body"></circle><text x="16" y="-2" class="schematex-circuit-pol">+</text><text x="23" y="8" class="schematex-circuit-pol">−</text><line x1="32" y1="0" x2="40" y2="0" class="schematex-circuit-wire"></line></g><text x="24" y="88" class="schematex-circuit-label" text-anchor="middle">V1</text><text x="24" y="100" class="schematex-circuit-value" text-anchor="middle">9V</text><g transform="translate(160, 110) rotate(0)" data-id="Rc" data-type="resistor"><path d="M 0,0 L 5,0 L 8,-8 L 12,8 L 16,-8 L 20,8 L 24,-8 L 28,8 L 32,-8 L 35,0 L 40,0" class="schematex-circuit-body"></path></g><text x="180" y="92" class="schematex-circuit-label" text-anchor="middle">Rc</text><text x="180" y="104" class="schematex-circuit-value" text-anchor="middle">2.2k</text><g transform="translate(280, 110) rotate(0)" data-id="Rb" data-type="resistor"><path d="M 0,0 L 5,0 L 8,-8 L 12,8 L 16,-8 L 20,8 L 24,-8 L 28,8 L 32,-8 L 35,0 L 40,0" class="schematex-circuit-body"></path></g><text x="300" y="92" class="schematex-circuit-label" text-anchor="middle">Rb</text><text x="300" y="104" class="schematex-circuit-value" text-anchor="middle">100k</text><g transform="translate(400, 110) rotate(0)" data-id="Q1" data-type="npn"><circle cx="20" cy="0" r="16" fill="white" class="schematex-circuit-body"></circle><line x1="14" y1="-10" x2="14" y2="10" class="schematex-circuit-body"></line><line x1="0" y1="0" x2="14" y2="0" class="schematex-circuit-wire"></line><line x1="14" y1="-6" x2="30" y2="-12" class="schematex-circuit-body"></line><line x1="30" y1="-12" x2="40" y2="-16" class="schematex-circuit-wire"></line><line x1="14" y1="6" x2="30" y2="12" class="schematex-circuit-body"></line><line x1="30" y1="12" x2="40" y2="16" class="schematex-circuit-wire"></line><polygon points="30,12 24,10 26,16" class="schematex-circuit-fill"></polygon></g><text x="420" y="92" class="schematex-circuit-label" text-anchor="middle">Q1</text><g transform="translate(520, 110) rotate(0)" data-id="Re" data-type="resistor"><path d="M 0,0 L 5,0 L 8,-8 L 12,8 L 16,-8 L 20,8 L 24,-8 L 28,8 L 32,-8 L 35,0 L 40,0" class="schematex-circuit-body"></path></g><text x="540" y="92" class="schematex-circuit-label" text-anchor="middle">Re</text><text x="540" y="104" class="schematex-circuit-value" text-anchor="middle">1k</text><g transform="translate(280, 270) rotate(90)" data-id="_GND0" data-type="ground"><line x1="0" y1="0" x2="10" y2="0" class="schematex-circuit-wire"></line><line x1="10" y1="-8" x2="10" y2="8" class="schematex-circuit-body"></line><line x1="6" y1="4" x2="14" y2="4" class="schematex-circuit-body"></line><line x1="8" y1="8" x2="12" y2="8" class="schematex-circuit-body"></line></g></g></svg>
