<svg xmlns="http://www.w3.org/2000/svg" xmlns:xlink="http://www.w3.org/1999/xlink" class="lt-sld" role="img" aria-labelledby="lt-sld-title lt-sld-desc" width="517" height="594" viewBox="0 0 517 594"><title>Utility with generator backup</title>
<desc>Single-line diagram with 8 nodes and 7 connections</desc>
<style>.lt-sld { background: #ffffff; font-family: system-ui, -apple-system, sans-serif; }
.lt-sld-stroke { stroke: #222222; stroke-width: 1.8; fill: none; }
.lt-sld-stroke-thick { stroke: #222222; stroke-width: 2.4; fill: none; stroke-linecap: round; }
.lt-sld-fill { fill: #ffffff; stroke: #222222; stroke-width: 2; }
.lt-sld-fill-dark { fill: #222222; stroke: #222222; stroke-width: 1; }
.lt-sld-dot { fill: #222222; stroke: none; }
.lt-sld-wire { stroke: #222222; stroke-width: 2; fill: none; }
.lt-sld-bus { stroke: #111111; stroke-width: 6; stroke-linecap: square; }
.lt-sld-band-odd { fill: #f7f7f7; stroke: none; }
.lt-sld-band-even { fill: #fbfbfb; stroke: none; }
.lt-sld-band-label { font: bold 11px sans-serif; fill: #555555; }
.lt-sld-title { font: bold 16px sans-serif; fill: #111111; }
.lt-sld-id { font: bold 11px sans-serif; fill: #111111; text-anchor: middle; }
.lt-sld-rating { font: 9px sans-serif; fill: #555555; text-anchor: middle; }
.lt-sld-voltage { font: bold 10px sans-serif; fill: #555555; }
.lt-sld-nameplate { font: 9px sans-serif; fill: #555555; }
.lt-sld-cable { font: 9px ui-monospace, SFMono-Regular, Menlo, monospace; fill: #555555; }
.lt-sld-symbol-text { font: 11px sans-serif; fill: #111111; dominant-baseline: middle; }
.lt-sld-wdg { font: bold 10px sans-serif; fill: #222222; dominant-baseline: middle; }
.lt-sld-bus-label { font: bold 11px sans-serif; fill: #1d4e89; }</style>
<defs><marker id="lt-sld-arrow" markerWidth="8" markerHeight="8" refX="6" refY="3" orient="auto" markerUnits="strokeWidth"><path d="M 0 0 L 6 3 L 0 6 z" fill="#555555"/></marker></defs>
<text x="20" y="22" class="lt-sld-title">Utility with generator backup</text>
<g transform="translate(0, 34)"><rect x="0" y="0" width="517" height="100" class="lt-sld-band-odd"/>
<text x="14" y="18" class="lt-sld-band-label">480V</text>
<rect x="0" y="100" width="517" height="100" class="lt-sld-band-even"/>
<rect x="0" y="200" width="517" height="100" class="lt-sld-band-odd"/>
<text x="14" y="218" class="lt-sld-band-label">480V</text>
<rect x="0" y="300" width="517" height="100" class="lt-sld-band-even"/>
<rect x="0" y="400" width="517" height="100" class="lt-sld-band-odd"/>
<path d="M 98 58 L 98 90 L 153 90 L 153 122" class="lt-sld-wire"/>
<path d="M 208 58 L 208 90 L 153 90 L 153 122" class="lt-sld-wire"/>
<path d="M 153 158 L 153 199 L 265.5 199 L 265.5 240" class="lt-sld-wire"/>
<path d="M 265.5 240 L 265.5 281 L 288 281 L 288 322" class="lt-sld-wire"/>
<path d="M 265.5 240 L 265.5 281 L 378 281 L 378 322" class="lt-sld-wire"/>
<path d="M 288 358 L 288 426" class="lt-sld-wire"/>
<path d="M 378 358 L 378 392 L 397 392 L 397 426" class="lt-sld-wire"/>
<g transform="translate(98, 40)" data-type="utility" data-id="UTIL"><g><circle cx="0" cy="0" r="16" class="lt-sld-fill"/>
<path d="M -8 0 Q -4 -8 0 0 Q 4 8 8 0" class="lt-sld-stroke" fill="none"/>
<line x1="0" y1="-24" x2="0" y2="-16" class="lt-sld-stroke"/>
<line x1="0" y1="16" x2="0" y2="18" class="lt-sld-stroke"/></g></g>
<text x="98" y="-6" class="lt-sld-id">Utility</text>
<text x="98" y="72" class="lt-sld-rating">480V</text>
<g transform="translate(208, 40)" data-type="generator" data-id="GEN"><g><circle cx="0" cy="0" r="16" class="lt-sld-fill"/>
<text x="0" y="-2" class="lt-sld-symbol-text" text-anchor="middle" font-weight="bold" font-size="14">G</text>
<path d="M -6 6 Q -3 1 0 6 Q 3 11 6 6" class="lt-sld-stroke" fill="none"/>
<line x1="0" y1="-24" x2="0" y2="-16" class="lt-sld-stroke"/>
<line x1="0" y1="16" x2="0" y2="18" class="lt-sld-stroke"/></g></g>
<text x="208" y="-6" class="lt-sld-id">Emergency Gen</text>
<text x="208" y="72" class="lt-sld-rating">500 kW</text>
<text x="208" y="83" class="lt-sld-rating">480V</text>
<g transform="translate(153, 140)" data-type="ats" data-id="ATS1"><g><rect x="-22" y="-16" width="44" height="32" class="lt-sld-fill"/>
<line x1="-14" y1="-8" x2="-2" y2="6" class="lt-sld-stroke-thick"/>
<line x1="14" y1="-8" x2="2" y2="6" class="lt-sld-stroke-thick"/>
<text x="0" y="14" class="lt-sld-symbol-text" text-anchor="middle" font-weight="bold" font-size="9">ATS</text>
<line x1="-12" y1="-18" x2="-12" y2="-16" class="lt-sld-stroke"/>
<line x1="12" y1="-18" x2="12" y2="-16" class="lt-sld-stroke"/>
<line x1="0" y1="16" x2="0" y2="18" class="lt-sld-stroke"/></g></g>
<text x="153" y="100" class="lt-sld-id">ATS-1</text>
<text x="153" y="172" class="lt-sld-rating">800A</text>
<line x1="133" y1="240" x2="398" y2="240" class="lt-sld-bus" data-id="BUS1"/>
<text x="137" y="232" class="lt-sld-bus-label">480V · Critical Load Bus</text>
<g transform="translate(288, 340)" data-type="breaker" data-id="CB1"><g><line x1="0" y1="-14" x2="0" y2="-10" class="lt-sld-stroke"/>
<line x1="0" y1="10" x2="0" y2="14" class="lt-sld-stroke"/>
<line x1="-6" y1="10" x2="8" y2="-10" class="lt-sld-stroke-thick"/>
<path d="M 8 -10 Q 14 -12 12 -18" class="lt-sld-stroke" fill="none"/>
<line x1="0" y1="-18" x2="0" y2="-14" class="lt-sld-stroke"/>
<line x1="0" y1="14" x2="0" y2="18" class="lt-sld-stroke"/></g></g>
<text x="288" y="300" class="lt-sld-id">CB1</text>
<text x="288" y="372" class="lt-sld-rating">200A</text>
<g transform="translate(378, 340)" data-type="breaker" data-id="CB2"><g><line x1="0" y1="-14" x2="0" y2="-10" class="lt-sld-stroke"/>
<line x1="0" y1="10" x2="0" y2="14" class="lt-sld-stroke"/>
<line x1="-6" y1="10" x2="8" y2="-10" class="lt-sld-stroke-thick"/>
<path d="M 8 -10 Q 14 -12 12 -18" class="lt-sld-stroke" fill="none"/>
<line x1="0" y1="-18" x2="0" y2="-14" class="lt-sld-stroke"/>
<line x1="0" y1="14" x2="0" y2="18" class="lt-sld-stroke"/></g></g>
<text x="378" y="300" class="lt-sld-id">CB2</text>
<text x="378" y="372" class="lt-sld-rating">200A</text>
<g transform="translate(288, 440)" data-type="load" data-id="L1"><g><rect x="-16" y="-12" width="32" height="24" class="lt-sld-fill"/></g></g>
<text x="288" y="404" class="lt-sld-id">Critical Load 1</text>
<text x="288" y="468" class="lt-sld-rating">100A</text>
<g transform="translate(397, 440)" data-type="load" data-id="L2"><g><rect x="-16" y="-12" width="32" height="24" class="lt-sld-fill"/></g></g>
<text x="397" y="404" class="lt-sld-id">Critical Load 2</text>
<text x="397" y="468" class="lt-sld-rating">100A</text></g></svg>