<svg xmlns="http://www.w3.org/2000/svg" width="96" height="80" viewBox="0 0 96 80" role="img">
<title>Darlington, NPN</title>
<desc>Darlington, NPN, IEEE 315-1975 §8.6.17 Darlington connection, NPN. Not in the Schematex circuit exemplar; drawn to its rules with pins on the engine's anchors; one unit is one exemplar pixel. Pins: c (88,8), b (8,40), e (88,72).</desc>
<circle cx="56" cy="40" r="30" fill="#FFFFFF" stroke="#17212B" stroke-width="2.5"/>
<polyline points="8,40 28,40 28,31 36,31" fill="none" stroke="#17212B" stroke-width="2.5" stroke-linejoin="round" stroke-linecap="round"/>
<line x1="36" y1="22" x2="36" y2="40" stroke="#17212B" stroke-width="4.5" stroke-linecap="round"/>
<line x1="60" y1="38" x2="60" y2="58" stroke="#17212B" stroke-width="4.5" stroke-linecap="round"/>
<line x1="36" y1="25" x2="50" y2="16" stroke="#17212B" stroke-width="2.5" stroke-linecap="round"/>
<polyline points="50,16 88,16 88,8" fill="none" stroke="#17212B" stroke-width="2.5" stroke-linejoin="round" stroke-linecap="round"/>
<polyline points="60,41 76,31 76,16" fill="none" stroke="#17212B" stroke-width="2.5" stroke-linejoin="round" stroke-linecap="round"/>
<polyline points="36,37 52,43 52,48 60,48" fill="none" stroke="#17212B" stroke-width="2.5" stroke-linejoin="round" stroke-linecap="round"/>
<polyline points="60,54 76,63 88,63 88,72" fill="none" stroke="#17212B" stroke-width="2.5" stroke-linejoin="round" stroke-linecap="round"/>
<path d="M 48.25,41.6 L 39.54,42.06 L 41.99,35.51 Z" fill="#17212B"/>
<path d="M 72.51,61.04 L 63.83,60.17 L 67.26,54.07 Z" fill="#17212B"/>
</svg>
